<svg xmlns="http://www.w3.org/2000/svg" viewBox="0 0 200 200" width="200" height="200">
  <defs>
    <linearGradient id="navyGrad" x1="0%" y1="0%" x2="100%" y2="100%">
      <stop offset="0%" stop-color="#1e3a8a"/>
      <stop offset="100%" stop-color="#2563eb"/>
    </linearGradient>
    <linearGradient id="goldGrad" x1="0%" y1="0%" x2="100%" y2="100%">
      <stop offset="0%" stop-color="#f59e0b"/>
      <stop offset="100%" stop-color="#fbbf24"/>
    </linearGradient>
  </defs>
  <circle cx="100" cy="100" r="92" fill="url(#navyGrad)" stroke="url(#goldGrad)" stroke-width="8"/>
  <circle cx="100" cy="100" r="76" fill="none" stroke="#ffffff" stroke-width="2" stroke-dasharray="6,4"/>
  <!-- School Crest Shape -->
  <path d="M 100 40 L 140 60 V 105 C 140 135 100 155 100 155 C 100 155 60 135 60 105 V 60 Z" fill="url(#goldGrad)"/>
  <path d="M 100 46 L 134 63 V 102 C 134 128 100 145 100 145 C 100 145 66 128 66 102 V 63 Z" fill="#1e3a8a"/>
  <!-- Book Symbol -->
  <path d="M 82 92 C 90 88 98 90 100 92 C 102 90 110 88 118 92 V 116 C 110 112 102 114 100 116 C 98 114 90 112 82 116 Z" fill="#ffffff"/>
  <line x1="100" y1="92" x2="100" y2="116" stroke="#1e3a8a" stroke-width="2"/>
  <!-- Text -->
  <text x="100" y="132" font-family="'Outfit', sans-serif" font-weight="900" font-size="16" fill="#ffffff" text-anchor="middle" letter-spacing="1">IGS</text>
</svg>
